<svg width="29" height="28" viewBox="0 0 29 28" fill="none" xmlns="http://www.w3.org/2000/svg">
<path d="M15.4947 0.279768L28.1021 13.355C28.2825 13.5418 28.3728 13.7567 28.3728 13.9998C28.3728 14.243 28.2825 14.4583 28.1021 14.6452L15.4947 27.7193C15.3141 27.9066 15.1069 28 14.8723 28C14.6379 28 14.4304 27.9063 14.2501 27.7193L12.8978 26.3168C12.7175 26.1298 12.6274 25.9146 12.6274 25.6715C12.6274 25.4284 12.7175 25.2132 12.8978 25.0261L23.5301 13.9998L12.8971 2.97316C12.7168 2.78625 12.6273 2.57094 12.6273 2.32821C12.6273 2.0847 12.7174 1.86948 12.8971 1.68257L14.25 0.279867C14.4303 0.0929585 14.6379 9.16321e-05 14.8722 9.16321e-05C15.1069 -7.55003e-06 15.3144 0.0928594 15.4947 0.279768Z" fill="#C0C0C0"/>
<path d="M3.49471 0.279768L16.1021 13.355C16.2824 13.5418 16.3728 13.7567 16.3728 13.9998C16.3728 14.243 16.2824 14.4583 16.1021 14.6452L3.49471 27.7193C3.3141 27.9066 3.10686 28 2.87232 28C2.63789 28 2.43036 27.9063 2.25013 27.7193L0.897799 26.3168C0.71747 26.1298 0.627353 25.9146 0.627353 25.6715C0.627353 25.4284 0.71747 25.2132 0.897799 25.0261L11.5301 13.9998L0.897136 2.97316C0.716806 2.78625 0.627258 2.57094 0.627258 2.32821C0.627258 2.0847 0.717375 1.86948 0.897136 1.68257L2.25003 0.279867C2.43027 0.0929585 2.63789 9.16321e-05 2.87223 9.16321e-05C3.10686 -7.55003e-06 3.31438 0.0928594 3.49471 0.279768Z" fill="#C0C0C0"/>
</svg>
