<svg width="16" height="16" viewBox="0 0 16 16" fill="none" xmlns="http://www.w3.org/2000/svg">
<path d="M10.5345 5.7905C10.5345 4.399 9.3975 3.267 8 3.267C6.6025 3.267 5.4655 4.399 5.4655 5.7905C5.4655 7.182 6.6025 8.314 8 8.314C9.3975 8.314 10.5345 7.182 10.5345 5.7905Z" fill="white"/>
<path d="M7.99874 15.999L9.02599 14.6552C10.0982 13.2357 13.5965 8.39925 13.5965 5.755C13.5967 2.31325 11.3477 0.000999451 7.99999 0.000999451C4.65224 0.000999451 2.40324 2.31325 2.40324 5.75525C2.40324 8.60275 6.51124 14.0467 6.97849 14.6565L7.99874 15.999ZM4.46549 5.7905C4.46549 3.84775 6.05099 2.267 7.99999 2.267C9.94899 2.267 11.5345 3.84775 11.5345 5.7905C11.5345 7.73325 9.94899 9.314 7.99999 9.314C6.05099 9.314 4.46549 7.7335 4.46549 5.7905Z" fill="white"/>
</svg>
